# xmcd
#
# Track frame offsets: 
#        150
#        23075
#        60700
#        87525
#        127525
#        150150
#        169525
#        207075
#        227400
#        255250
#
# Disc length: 3892 seconds
#
# Revision: 1
# Processed by: cddbd v1.4PL0 Copyright (c) Steve Scherf et al.
# Submitted via: ExactAudioCopy v0.90b4
#
DISCID=640f320a
DTITLE=Fonè Jazz Band - Fonè Jazz
DYEAR=1993
DGENRE=Jazz
TTITLE0=Angel Eyes
TTITLE1=Clip on
TTITLE2=A Night In Tunisia
TTITLE3=Alone Together
TTITLE4=I Loves You Porgy
TTITLE5=Fascinatin' Rhythm
TTITLE6=Rendezvouz Walttz
TTITLE7=Blue Daniel
TTITLE8=In Between
TTITLE9=What Is There To Say
EXTD=YEAR: 1993
EXTT0=
EXTT1=
EXTT2=
EXTT3=
EXTT4=
EXTT5=
EXTT6=
EXTT7=
EXTT8=
EXTT9=
PLAYORDER=
